<svg width="521" height="251" viewBox="0 0 521 251" fill="none" xmlns="http://www.w3.org/2000/svg">
<g style="mix-blend-mode:soft-light">
<g style="mix-blend-mode:multiply">
<path d="M258.65 81.9C258.65 83.5333 259.167 84.6333 260.2 85.2C259.933 85.7 259.533 86.0833 259 86.35C258.5 86.6167 257.917 86.75 257.25 86.75C256.283 86.75 255.483 86.4833 254.85 85.95C254.217 85.3833 253.833 84.6333 253.7 83.7C253.167 84.8 252.3 85.6333 251.1 86.2C249.933 86.8 248.667 87.1 247.3 87.1C243.9 87.1 241.433 85.8 239.9 83.2C238.367 80.6 237.6 77.2667 237.6 73.2C237.6 69 238.5 65.6667 240.3 63.2C242.133 60.7333 244.967 59.5 248.8 59.5C250.4 59.5 251.85 59.7167 253.15 60.15V51L258.65 50.4V81.9ZM253.15 64.05C251.617 63.0167 250.083 62.5 248.55 62.5C246.517 62.5 245.183 63.4667 244.55 65.4C243.917 67.3333 243.6 69.85 243.6 72.95C243.6 75.9167 243.967 78.4667 244.7 80.6C245.433 82.7 246.783 83.75 248.75 83.75C250.217 83.75 251.317 83.2 252.05 82.1C252.783 80.9667 253.15 79.5667 253.15 77.9V64.05ZM274.917 59.5C278.651 59.5 281.417 60.7167 283.217 63.15C285.017 65.55 285.917 68.8 285.917 72.9C285.917 77.2667 285.051 80.7333 283.317 83.3C281.584 85.8333 278.784 87.1 274.917 87.1C271.117 87.1 268.334 85.8833 266.567 83.45C264.834 81.0167 263.967 77.6667 263.967 73.4C263.967 69.2667 264.867 65.9167 266.667 63.35C268.467 60.7833 271.217 59.5 274.917 59.5ZM274.917 84.1C276.984 84.1 278.334 83.0833 278.967 81.05C279.601 79.0167 279.917 76.3833 279.917 73.15C279.917 70.1833 279.567 67.6667 278.867 65.6C278.201 63.5333 276.884 62.5 274.917 62.5C271.617 62.5 269.967 66.05 269.967 73.15C269.967 76.3833 270.267 79.0167 270.867 81.05C271.501 83.0833 272.851 84.1 274.917 84.1Z" fill="white"/>
<path d="M260.2 85.2L261.082 85.6706L261.547 84.7985L260.681 84.3232L260.2 85.2ZM259 86.35L258.553 85.4556L258.541 85.4615L258.529 85.4676L259 86.35ZM254.85 85.95L254.183 86.6952L254.194 86.7052L254.206 86.7149L254.85 85.95ZM253.7 83.7L254.69 83.5586L254.227 80.3202L252.8 83.2637L253.7 83.7ZM251.1 86.2L250.673 85.2958L250.658 85.303L250.643 85.3107L251.1 86.2ZM239.9 83.2L239.039 83.708L239.9 83.2ZM240.3 63.2L239.497 62.6035L239.492 62.6105L240.3 63.2ZM253.15 60.15L252.834 61.0987L254.15 61.5374V60.15H253.15ZM253.15 51L253.042 50.0059L252.15 50.1032V51H253.15ZM258.65 50.4H259.65V49.285L258.542 49.4059L258.65 50.4ZM253.15 64.05H254.15V63.518L253.709 63.2207L253.15 64.05ZM244.55 65.4L243.6 65.0887L243.6 65.0887L244.55 65.4ZM244.7 80.6L243.754 80.9251L243.756 80.9297L244.7 80.6ZM252.05 82.1L252.882 82.6548L252.89 82.6433L252.05 82.1ZM257.65 81.9C257.65 83.7388 258.247 85.2693 259.719 86.0768L260.681 84.3232C260.087 83.9974 259.65 83.3278 259.65 81.9H257.65ZM259.318 84.7294C259.154 85.0365 258.911 85.2765 258.553 85.4556L259.447 87.2444C260.156 86.8902 260.713 86.3635 261.082 85.6706L259.318 84.7294ZM258.529 85.4676C258.198 85.6445 257.782 85.75 257.25 85.75V87.75C258.052 87.75 258.802 87.5888 259.471 87.2324L258.529 85.4676ZM257.25 85.75C256.477 85.75 255.918 85.5418 255.494 85.1851L254.206 86.7149C255.049 87.4249 256.089 87.75 257.25 87.75V85.75ZM255.517 85.2048C255.078 84.8125 254.794 84.2861 254.69 83.5586L252.71 83.8414C252.873 84.9806 253.355 85.9542 254.183 86.6952L255.517 85.2048ZM252.8 83.2637C252.375 84.1403 251.685 84.8176 250.673 85.2958L251.527 87.1042C252.915 86.449 253.958 85.4597 254.6 84.1363L252.8 83.2637ZM250.643 85.3107C249.623 85.8349 248.514 86.1 247.3 86.1V88.1C248.819 88.1 250.243 87.7651 251.557 87.0893L250.643 85.3107ZM247.3 86.1C244.2 86.1 242.089 84.9436 240.761 82.692L239.039 83.708C240.777 86.6564 243.6 88.1 247.3 88.1V86.1ZM240.761 82.692C239.345 80.2904 238.6 77.1479 238.6 73.2H236.6C236.6 77.3855 237.388 80.9096 239.039 83.708L240.761 82.692ZM238.6 73.2C238.6 69.134 239.472 66.0313 241.108 63.7895L239.492 62.6105C237.528 65.3021 236.6 68.866 236.6 73.2H238.6ZM241.103 63.7965C242.701 61.6462 245.196 60.5 248.8 60.5V58.5C244.737 58.5 241.566 59.8204 239.497 62.6035L241.103 63.7965ZM248.8 60.5C250.31 60.5 251.651 60.7045 252.834 61.0987L253.466 59.2013C252.049 58.7288 250.49 58.5 248.8 58.5V60.5ZM254.15 60.15V51H252.15V60.15H254.15ZM253.258 51.9941L258.758 51.3941L258.542 49.4059L253.042 50.0059L253.258 51.9941ZM257.65 50.4V81.9H259.65V50.4H257.65ZM253.709 63.2207C252.045 62.0994 250.32 61.5 248.55 61.5V63.5C249.846 63.5 251.188 63.934 252.591 64.8793L253.709 63.2207ZM248.55 61.5C247.373 61.5 246.312 61.7818 245.438 62.4154C244.564 63.049 243.966 63.9696 243.6 65.0887L245.5 65.7113C245.767 64.8971 246.153 64.3677 246.612 64.0346C247.071 63.7016 247.694 63.5 248.55 63.5V61.5ZM243.6 65.0887C242.921 67.1606 242.6 69.7936 242.6 72.95H244.6C244.6 69.9064 244.912 67.5061 245.5 65.7113L243.6 65.0887ZM242.6 72.95C242.6 75.9945 242.976 78.6601 243.754 80.9251L245.646 80.2749C244.958 78.2733 244.6 75.8389 244.6 72.95H242.6ZM243.756 80.9297C244.167 82.1076 244.782 83.0779 245.649 83.7519C246.525 84.4334 247.579 84.75 248.75 84.75V82.75C247.954 82.75 247.35 82.5416 246.876 82.1731C246.393 81.7971 245.966 81.1924 245.644 80.2703L243.756 80.9297ZM248.75 84.75C250.508 84.75 251.941 84.0669 252.882 82.6547L251.218 81.5453C250.693 82.3331 249.925 82.75 248.75 82.75V84.75ZM252.89 82.6433C253.75 81.3138 254.15 79.7141 254.15 77.9H252.15C252.15 79.4193 251.817 80.6195 251.21 81.5567L252.89 82.6433ZM254.15 77.9V64.05H252.15V77.9H254.15ZM283.217 63.15L282.413 63.7447L282.417 63.75L283.217 63.15ZM283.317 83.3L284.143 83.8647L284.146 83.8597L283.317 83.3ZM266.567 83.45L265.753 84.0302L265.758 84.0375L266.567 83.45ZM266.667 63.35L267.486 63.9242L267.486 63.9242L266.667 63.35ZM278.967 81.05L279.922 81.3474L278.967 81.05ZM278.867 65.6L277.915 65.907L277.918 65.9139L277.92 65.9208L278.867 65.6ZM270.867 81.05L269.908 81.333L269.91 81.3402L269.912 81.3474L270.867 81.05ZM274.917 60.5C278.416 60.5 280.846 61.6262 282.413 63.7447L284.021 62.5553C281.988 59.8072 278.885 58.5 274.917 58.5V60.5ZM282.417 63.75C284.047 65.9234 284.917 68.9383 284.917 72.9H286.917C286.917 68.6617 285.987 65.1766 284.017 62.55L282.417 63.75ZM284.917 72.9C284.917 77.1459 284.073 80.3939 282.488 82.7403L284.146 83.8597C286.028 81.0727 286.917 77.3875 286.917 72.9H284.917ZM282.492 82.7353C280.993 84.9253 278.55 86.1 274.917 86.1V88.1C279.018 88.1 282.174 86.7414 284.142 83.8647L282.492 82.7353ZM274.917 86.1C271.344 86.1 268.906 84.9691 267.376 82.8625L265.758 84.0375C267.762 86.7976 270.891 88.1 274.917 88.1V86.1ZM267.382 82.8698C265.811 80.6644 264.967 77.5444 264.967 73.4H262.967C262.967 77.7889 263.857 81.3689 265.753 84.0302L267.382 82.8698ZM264.967 73.4C264.967 69.4074 265.836 66.2764 267.486 63.9242L265.848 62.7758C263.898 65.5569 262.967 69.1259 262.967 73.4H264.967ZM267.486 63.9242C269.063 61.6751 271.476 60.5 274.917 60.5V58.5C270.958 58.5 267.871 59.8916 265.848 62.7758L267.486 63.9242ZM274.917 85.1C276.118 85.1 277.197 84.8021 278.081 84.1363C278.963 83.4725 279.559 82.5116 279.922 81.3474L278.012 80.7526C277.742 81.6217 277.347 82.1858 276.878 82.5387C276.412 82.8895 275.783 83.1 274.917 83.1V85.1ZM279.922 81.3474C280.597 79.1816 280.917 76.4376 280.917 73.15H278.917C278.917 76.329 278.605 78.8517 278.012 80.7526L279.922 81.3474ZM280.917 73.15C280.917 70.1107 280.559 67.4789 279.814 65.2792L277.92 65.9208C278.575 67.8545 278.917 70.2559 278.917 73.15H280.917ZM279.819 65.293C279.442 64.1259 278.853 63.1598 277.997 62.4883C277.133 61.8102 276.084 61.5 274.917 61.5V63.5C275.717 63.5 276.31 63.7064 276.762 64.0617C277.223 64.4235 277.625 65.0074 277.915 65.907L279.819 65.293ZM274.917 61.5C273.902 61.5 272.972 61.7771 272.169 62.353C271.376 62.9217 270.763 63.7409 270.298 64.741C269.38 66.7156 268.967 69.5541 268.967 73.15H270.967C270.967 69.6459 271.379 67.1594 272.112 65.584C272.472 64.8091 272.89 64.297 273.334 63.9782C273.769 63.6666 274.283 63.5 274.917 63.5V61.5ZM268.967 73.15C268.967 76.4345 269.271 79.173 269.908 81.333L271.826 80.767C271.264 78.8603 270.967 76.3322 270.967 73.15H268.967ZM269.912 81.3474C270.275 82.5116 270.872 83.4725 271.753 84.1363C272.637 84.8021 273.716 85.1 274.917 85.1V83.1C274.051 83.1 273.422 82.8895 272.956 82.5387C272.488 82.1858 272.093 81.6217 271.822 80.7526L269.912 81.3474Z" fill="white"/>
</g>
<g style="mix-blend-mode:multiply">
<path d="M58.2 65.12C58.2 72.08 56.16 77.72 52.08 82.04C48 86.28 42.52 88.4 35.64 88.4C33.08 88.4 30.84 88 28.92 87.2C27 86.32 26.04 84.88 26.04 82.88C32.12 82.88 36.6 81.48 39.48 78.68C42.36 75.88 43.8 71.52 43.8 65.6C43.8 60.56 42.56 56.84 40.08 54.44C37.68 51.96 33.96 50.72 28.92 50.72C26.44 50.72 23.88 50.92 21.24 51.32V122H7.2V43.28C16.64 42.64 24.16 42.32 29.76 42.32C38.88 42.32 45.88 44.12 50.76 47.72C55.72 51.24 58.2 57.04 58.2 65.12Z" fill="white"/>
<path d="M52.08 82.04L52.8006 82.7334L52.807 82.7266L52.08 82.04ZM28.92 87.2L28.5033 88.1091L28.5192 88.1163L28.5354 88.1231L28.92 87.2ZM26.04 82.88V81.88H25.04V82.88H26.04ZM39.48 78.68L38.7829 77.963L39.48 78.68ZM40.08 54.44L39.3614 55.1354L39.3728 55.1472L39.3846 55.1586L40.08 54.44ZM21.24 51.32L21.0902 50.3313L20.24 50.4601V51.32H21.24ZM21.24 122V123H22.24V122H21.24ZM7.2 122H6.2V123H7.2V122ZM7.2 43.28L7.13236 42.2823L6.2 42.3455V43.28H7.2ZM50.76 47.72L50.1664 48.5247L50.1738 48.5302L50.1813 48.5355L50.76 47.72ZM57.2 65.12C57.2 71.8714 55.228 77.2504 51.353 81.3534L52.807 82.7266C57.092 78.1896 59.2 72.2886 59.2 65.12H57.2ZM51.3594 81.3466C47.5 85.3574 42.2981 87.4 35.64 87.4V89.4C42.7419 89.4 48.5 87.2026 52.8006 82.7334L51.3594 81.3466ZM35.64 87.4C33.1824 87.4 31.0781 87.0159 29.3046 86.2769L28.5354 88.1231C30.6019 88.9841 32.9776 89.4 35.64 89.4V87.4ZM29.3367 86.2909C28.5081 85.9112 27.9486 85.4401 27.5921 84.9053C27.2378 84.374 27.04 83.7141 27.04 82.88H25.04C25.04 84.0459 25.3222 85.106 25.928 86.0147C26.5314 86.9199 27.4119 87.6088 28.5033 88.1091L29.3367 86.2909ZM26.04 83.88C32.2492 83.88 37.0338 82.4529 40.1771 79.397L38.7829 77.963C36.1662 80.5071 31.9908 81.88 26.04 81.88V83.88ZM40.1771 79.397C43.3264 76.3351 44.8 71.6622 44.8 65.6H42.8C42.8 71.3778 41.3936 75.4249 38.7829 77.963L40.1771 79.397ZM44.8 65.6C44.8 60.4143 43.5247 56.382 40.7754 53.7214L39.3846 55.1586C41.5953 57.298 42.8 60.7057 42.8 65.6H44.8ZM40.7986 53.7446C38.138 50.9953 34.1057 49.72 28.92 49.72V51.72C33.8143 51.72 37.222 52.9247 39.3614 55.1354L40.7986 53.7446ZM28.92 49.72C26.3862 49.72 23.776 49.9243 21.0902 50.3313L21.3898 52.3087C23.984 51.9157 26.4938 51.72 28.92 51.72V49.72ZM20.24 51.32V122H22.24V51.32H20.24ZM21.24 121H7.2V123H21.24V121ZM8.2 122V43.28H6.2V122H8.2ZM7.26764 44.2777C16.6982 43.6383 24.1927 43.32 29.76 43.32V41.32C24.1273 41.32 16.5818 41.6416 7.13236 42.2823L7.26764 44.2777ZM29.76 43.32C38.7684 43.32 45.5254 45.1011 50.1664 48.5247L51.3537 46.9153C46.2346 43.1389 38.9916 41.32 29.76 41.32V43.32ZM50.1813 48.5355C54.7943 51.8093 57.2 57.2473 57.2 65.12H59.2C59.2 56.8327 56.6457 50.6707 51.3387 46.9045L50.1813 48.5355Z" fill="white"/>
</g>
<g style="mix-blend-mode:multiply">
<path d="M462.8 69.52C462.8 74.96 464.2 79.6 467 83.44C469.72 87.28 473.48 89.88 478.28 91.24L457.4 127H472.76L494.12 89.08C494.6 88.2 494.84 87.4 494.84 86.68C488.84 86.68 484.4 85.36 481.52 82.72C478.64 80 477.2 75.76 477.2 70C477.2 65.2 478.44 61.64 480.92 59.32C483.32 56.92 487.04 55.72 492.08 55.72C494.56 55.72 497.12 55.92 499.76 56.32V127H513.8V48.28C504.36 47.64 496.84 47.32 491.24 47.32C472.28 47.32 462.8 54.72 462.8 69.52Z" fill="white"/>
<path d="M467 83.44L467.808 82.8508L467.816 82.862L467 83.44ZM478.28 91.24L478.553 90.2779L479.794 90.6297L479.144 91.7442L478.28 91.24ZM457.4 127V128H455.658L456.536 126.496L457.4 127ZM472.76 127L473.631 127.491L473.344 128H472.76V127ZM494.12 89.08L494.998 89.5589L494.991 89.5708L494.12 89.08ZM494.84 86.68V85.68H495.84V86.68H494.84ZM481.52 82.72L480.844 83.4572L480.839 83.4521L480.833 83.447L481.52 82.72ZM480.92 59.32L481.627 60.0271L481.615 60.0389L481.603 60.0503L480.92 59.32ZM499.76 56.32L499.91 55.3313L500.76 55.4601V56.32H499.76ZM499.76 127V128H498.76V127H499.76ZM513.8 127H514.8V128H513.8V127ZM513.8 48.28L513.868 47.2823L514.8 47.3455V48.28H513.8ZM463.8 69.52C463.8 74.7801 465.15 79.206 467.808 82.8508L466.192 84.0292C463.25 79.994 461.8 75.1399 461.8 69.52H463.8ZM467.816 82.862C470.396 86.5039 473.958 88.9761 478.553 90.2779L478.007 92.2021C473.002 90.7839 469.044 88.0561 466.184 84.018L467.816 82.862ZM479.144 91.7442L458.264 127.504L456.536 126.496L477.416 90.7358L479.144 91.7442ZM457.4 126H472.76V128H457.4V126ZM471.889 126.509L493.249 88.5892L494.991 89.5708L473.631 127.491L471.889 126.509ZM493.242 88.6011C493.672 87.8134 493.84 87.1799 493.84 86.68H495.84C495.84 87.6201 495.528 88.5866 494.998 89.5588L493.242 88.6011ZM494.84 87.68C488.719 87.68 483.986 86.337 480.844 83.4572L482.196 81.9828C484.814 84.383 488.961 85.68 494.84 85.68V87.68ZM480.833 83.447C477.677 80.4662 476.2 75.909 476.2 70H478.2C478.2 75.611 479.603 79.5338 482.207 81.993L480.833 83.447ZM476.2 70C476.2 65.0402 477.483 61.1661 480.237 58.5897L481.603 60.0503C479.397 62.1139 478.2 65.3598 478.2 70H476.2ZM480.213 58.6129C482.875 55.9511 486.902 54.72 492.08 54.72V56.72C487.178 56.72 483.765 57.8889 481.627 60.0271L480.213 58.6129ZM492.08 54.72C494.614 54.72 497.224 54.9243 499.91 55.3313L499.61 57.3087C497.016 56.9157 494.506 56.72 492.08 56.72V54.72ZM500.76 56.32V127H498.76V56.32H500.76ZM499.76 126H513.8V128H499.76V126ZM512.8 127V48.28H514.8V127H512.8ZM513.732 49.2777C504.302 48.6383 496.807 48.32 491.24 48.32V46.32C496.873 46.32 504.418 46.6416 513.868 47.2823L513.732 49.2777ZM491.24 48.32C481.863 48.32 475.014 50.1546 470.525 53.6583C466.084 57.1251 463.8 62.3493 463.8 69.52H461.8C461.8 61.8906 464.256 56.0149 469.295 52.0817C474.286 48.1854 481.657 46.32 491.24 46.32V48.32Z" fill="white"/>
</g>
<g style="mix-blend-mode:multiply">
<path d="M324.3 47C328.6 47 332.05 47.825 334.65 49.475C337.3 51.125 338.625 53.775 338.625 57.425C338.625 59.225 338.1 60.7 337.05 61.85C336 62.95 334.575 63.5 332.775 63.5C331.025 63.5 329.725 63.1 328.875 62.3C329.275 61.2 329.475 59.95 329.475 58.55C329.475 54.15 327.525 51.95 323.625 51.95C321.725 51.95 320.225 52.425 319.125 53.375C318.075 54.275 317.55 55.625 317.55 57.425C317.55 59.075 317.975 60.575 318.825 61.925C319.675 63.275 320.725 64.475 321.975 65.525C323.275 66.575 325.025 67.85 327.225 69.35C329.825 71.1 331.9 72.675 333.45 74.075C335.05 75.425 336.4 77.075 337.5 79.025C338.6 80.925 339.15 83.125 339.15 85.625C339.15 90.075 337.625 93.525 334.575 95.975C331.525 98.425 327.575 99.65 322.725 99.65C318.325 99.65 314.675 98.775 311.775 97.025C308.925 95.225 307.5 92.45 307.5 88.7C307.5 86.9 308.025 85.45 309.075 84.35C310.125 83.2 311.525 82.625 313.275 82.625C315.025 82.625 316.325 83.025 317.175 83.825C316.825 84.825 316.65 86.075 316.65 87.575C316.65 92.325 318.9 94.7 323.4 94.7C325.6 94.7 327.4 94.1 328.8 92.9C330.2 91.65 330.9 89.975 330.9 87.875C330.9 86.225 330.475 84.725 329.625 83.375C328.775 82.025 327.7 80.825 326.4 79.775C325.15 78.725 323.425 77.45 321.225 75.95C318.625 74.2 316.525 72.65 314.925 71.3C313.375 69.9 312.05 68.25 310.95 66.35C309.85 64.4 309.3 62.175 309.3 59.675C309.3 55.675 310.7 52.575 313.5 50.375C316.35 48.125 319.95 47 324.3 47Z" fill="white"/>
<path d="M334.65 49.475L334.114 50.3194L334.121 50.3239L334.65 49.475ZM337.05 61.85L337.773 62.5405L337.781 62.5325L337.788 62.5243L337.05 61.85ZM328.875 62.3L327.935 61.9583L327.71 62.577L328.19 63.0282L328.875 62.3ZM319.125 53.375L319.776 54.1343L319.779 54.1318L319.125 53.375ZM318.825 61.925L319.671 61.3922L319.671 61.3922L318.825 61.925ZM321.975 65.525L321.332 66.2907L321.339 66.2969L321.347 66.3029L321.975 65.525ZM327.225 69.35L326.662 70.1762L326.667 70.1796L327.225 69.35ZM333.45 74.075L332.78 74.8171L332.792 74.8284L332.805 74.8393L333.45 74.075ZM337.5 79.025L336.629 79.5164L336.635 79.526L337.5 79.025ZM334.575 95.975L333.949 95.1954L333.949 95.1954L334.575 95.975ZM311.775 97.025L311.241 97.8705L311.25 97.8759L311.258 97.8812L311.775 97.025ZM309.075 84.35L309.798 85.0405L309.806 85.0325L309.813 85.0243L309.075 84.35ZM317.175 83.825L318.119 84.1553L318.333 83.5421L317.86 83.0968L317.175 83.825ZM328.8 92.9L329.451 93.6593L329.458 93.6527L329.466 93.6459L328.8 92.9ZM329.625 83.375L330.471 82.8422L330.471 82.8422L329.625 83.375ZM326.4 79.775L325.757 80.5407L325.764 80.5469L325.772 80.5529L326.4 79.775ZM321.225 75.95L321.788 75.1238L321.783 75.1204L321.225 75.95ZM314.925 71.3L314.255 72.0421L314.267 72.0534L314.28 72.0643L314.925 71.3ZM310.95 66.35L310.079 66.8414L310.085 66.851L310.95 66.35ZM313.5 50.375L314.118 51.1613L314.12 51.1599L313.5 50.375ZM324.3 48C328.482 48 331.726 48.8038 334.114 50.3193L335.186 48.6307C332.374 46.8462 328.718 46 324.3 46V48ZM334.121 50.3239C336.424 51.7578 337.625 54.0518 337.625 57.425H339.625C339.625 53.4982 338.176 50.4922 335.179 48.6261L334.121 50.3239ZM337.625 57.425C337.625 59.017 337.167 60.2385 336.312 61.1757L337.788 62.5243C339.033 61.1615 339.625 59.433 339.625 57.425H337.625ZM336.327 61.1595C335.5 62.0257 334.356 62.5 332.775 62.5V64.5C334.794 64.5 336.5 63.8743 337.773 62.5405L336.327 61.1595ZM332.775 62.5C331.155 62.5 330.151 62.1273 329.56 61.5718L328.19 63.0282C329.299 64.0727 330.895 64.5 332.775 64.5V62.5ZM329.815 62.6417C330.262 61.4131 330.475 60.0443 330.475 58.55H328.475C328.475 59.8557 328.288 60.9869 327.935 61.9583L329.815 62.6417ZM330.475 58.55C330.475 56.2236 329.962 54.2919 328.761 52.9367C327.539 51.5584 325.763 50.95 323.625 50.95V52.95C325.387 52.95 326.536 53.4416 327.264 54.2633C328.013 55.108 328.475 56.4764 328.475 58.55H330.475ZM323.625 50.95C321.56 50.95 319.803 51.4684 318.471 52.6182L319.779 54.1318C320.647 53.3816 321.89 52.95 323.625 52.95V50.95ZM318.474 52.6157C317.14 53.7594 316.55 55.4271 316.55 57.425H318.55C318.55 55.8229 319.01 54.7906 319.776 54.1343L318.474 52.6157ZM316.55 57.425C316.55 59.2567 317.025 60.9426 317.979 62.4578L319.671 61.3922C318.925 60.2074 318.55 58.8933 318.55 57.425H316.55ZM317.979 62.4578C318.885 63.8975 320.004 65.1756 321.332 66.2907L322.618 64.7593C321.446 63.7744 320.465 62.6525 319.671 61.3922L317.979 62.4578ZM321.347 66.3029C322.676 67.3768 324.451 68.6688 326.662 70.1762L327.788 68.5238C325.599 67.0312 323.874 65.7732 322.603 64.7471L321.347 66.3029ZM326.667 70.1796C329.245 71.9148 331.278 73.4604 332.78 74.8171L334.12 73.3329C332.522 71.8896 330.405 70.2852 327.783 68.5204L326.667 70.1796ZM332.805 74.8393C334.308 76.1073 335.583 77.6628 336.629 79.5163L338.371 78.5337C337.217 76.4872 335.792 74.7427 334.095 73.3107L332.805 74.8393ZM336.635 79.526C337.635 81.2536 338.15 83.2761 338.15 85.625H340.15C340.15 82.9739 339.565 80.5964 338.365 78.524L336.635 79.526ZM338.15 85.625C338.15 89.819 336.728 92.9628 333.949 95.1954L335.201 96.7546C338.522 94.0872 340.15 90.331 340.15 85.625H338.15ZM333.949 95.1954C331.116 97.4712 327.403 98.65 322.725 98.65V100.65C327.747 100.65 331.934 99.3788 335.201 96.7546L333.949 95.1954ZM322.725 98.65C318.454 98.65 314.996 97.8005 312.292 96.1688L311.258 97.8812C314.354 99.7495 318.196 100.65 322.725 100.65V98.65ZM312.309 96.1795C309.786 94.5859 308.5 92.1527 308.5 88.7H306.5C306.5 92.7473 308.064 95.8641 311.241 97.8705L312.309 96.1795ZM308.5 88.7C308.5 87.1068 308.958 85.9209 309.798 85.0405L308.352 83.6595C307.092 84.9791 306.5 86.6932 306.5 88.7H308.5ZM309.813 85.0243C310.65 84.1086 311.767 83.625 313.275 83.625V81.625C311.283 81.625 309.6 82.2914 308.337 83.6757L309.813 85.0243ZM313.275 83.625C314.895 83.625 315.899 83.9977 316.49 84.5532L317.86 83.0968C316.751 82.0523 315.155 81.625 313.275 81.625V83.625ZM316.231 83.4946C315.832 84.6349 315.65 86.0055 315.65 87.575H317.65C317.65 86.1445 317.818 85.0151 318.119 84.1553L316.231 83.4946ZM315.65 87.575C315.65 90.0911 316.245 92.164 317.612 93.6065C318.988 95.0592 320.982 95.7 323.4 95.7V93.7C321.318 93.7 319.937 93.1533 319.063 92.231C318.18 91.2985 317.65 89.8089 317.65 87.575H315.65ZM323.4 95.7C325.79 95.7 327.836 95.0434 329.451 93.6593L328.149 92.1407C326.964 93.1566 325.41 93.7 323.4 93.7V95.7ZM329.466 93.6459C331.105 92.1825 331.9 90.2221 331.9 87.875H329.9C329.9 89.7279 329.295 91.1175 328.134 92.1541L329.466 93.6459ZM331.9 87.875C331.9 86.0433 331.425 84.3574 330.471 82.8422L328.779 83.9078C329.525 85.0926 329.9 86.4067 329.9 87.875H331.9ZM330.471 82.8422C329.56 81.3947 328.41 80.1129 327.028 78.9971L325.772 80.5529C326.99 81.5371 327.99 82.6553 328.779 83.9078L330.471 82.8422ZM327.043 79.0093C325.757 77.9287 324.001 76.6325 321.788 75.1238L320.662 76.7762C322.849 78.2675 324.543 79.5213 325.757 80.5407L327.043 79.0093ZM321.783 75.1204C319.2 73.3817 317.132 71.854 315.57 70.5357L314.28 72.0643C315.918 73.446 318.05 75.0183 320.667 76.7796L321.783 75.1204ZM315.595 70.5579C314.126 69.2311 312.866 67.6636 311.815 65.849L310.085 66.851C311.234 68.8364 312.624 70.5689 314.255 72.0421L315.595 70.5579ZM311.821 65.8587C310.815 64.0755 310.3 62.0233 310.3 59.675H308.3C308.3 62.3267 308.885 64.7245 310.079 66.8413L311.821 65.8587ZM310.3 59.675C310.3 55.9388 311.591 53.1466 314.118 51.1613L312.882 49.5887C309.809 52.0034 308.3 55.4112 308.3 59.675H310.3ZM314.12 51.1599C316.76 49.0753 320.129 48 324.3 48V46C319.771 46 315.94 47.1747 312.88 49.5901L314.12 51.1599Z" fill="white"/>
</g>
<g style="mix-blend-mode:multiply">
<path d="M208.625 46.5V52.05H192.275V67.8H206.375V73.35H192.275V90.45H209.675L209.15 96H183.5V46.5H208.625Z" fill="white"/>
<path d="M208.625 46.5H209.625V45.5H208.625V46.5ZM208.625 52.05V53.05H209.625V52.05H208.625ZM192.275 52.05V51.05H191.275V52.05H192.275ZM192.275 67.8H191.275V68.8H192.275V67.8ZM206.375 67.8H207.375V66.8H206.375V67.8ZM206.375 73.35V74.35H207.375V73.35H206.375ZM192.275 73.35V72.35H191.275V73.35H192.275ZM192.275 90.45H191.275V91.45H192.275V90.45ZM209.675 90.45L210.671 90.5442L210.774 89.45H209.675V90.45ZM209.15 96V97H210.06L210.146 96.0942L209.15 96ZM183.5 96H182.5V97H183.5V96ZM183.5 46.5V45.5H182.5V46.5H183.5ZM207.625 46.5V52.05H209.625V46.5H207.625ZM208.625 51.05H192.275V53.05H208.625V51.05ZM191.275 52.05V67.8H193.275V52.05H191.275ZM192.275 68.8H206.375V66.8H192.275V68.8ZM205.375 67.8V73.35H207.375V67.8H205.375ZM206.375 72.35H192.275V74.35H206.375V72.35ZM191.275 73.35V90.45H193.275V73.35H191.275ZM192.275 91.45H209.675V89.45H192.275V91.45ZM208.679 90.3558L208.154 95.9058L210.146 96.0942L210.671 90.5442L208.679 90.3558ZM209.15 95H183.5V97H209.15V95ZM184.5 96V46.5H182.5V96H184.5ZM183.5 47.5H208.625V45.5H183.5V47.5Z" fill="white"/>
</g>
<g style="mix-blend-mode:multiply">
<path d="M366.9 48.5L379.725 98H370.875L367.875 85.4H353.175L350.25 98H342L355.725 48.5H366.9ZM354.525 79.85H366.6L360.525 54.125L354.525 79.85Z" fill="white"/>
<path d="M366.9 48.5L367.868 48.2492L367.674 47.5H366.9V48.5ZM379.725 98V99H381.017L380.693 97.7492L379.725 98ZM370.875 98L369.902 98.2316L370.085 99H370.875V98ZM367.875 85.4L368.848 85.1684L368.665 84.4H367.875V85.4ZM353.175 85.4V84.4H352.381L352.201 85.1739L353.175 85.4ZM350.25 98V99H351.044L351.224 98.2261L350.25 98ZM342 98L341.036 97.7328L340.685 99H342V98ZM355.725 48.5V47.5H354.965L354.761 48.2328L355.725 48.5ZM354.525 79.85L353.551 79.6229L353.265 80.85H354.525V79.85ZM366.6 79.85V80.85H367.864L367.573 79.6202L366.6 79.85ZM360.525 54.125L361.498 53.8952L359.551 53.8979L360.525 54.125ZM365.932 48.7508L378.757 98.2508L380.693 97.7492L367.868 48.2492L365.932 48.7508ZM379.725 97H370.875V99H379.725V97ZM371.848 97.7684L368.848 85.1684L366.902 85.6316L369.902 98.2316L371.848 97.7684ZM367.875 84.4H353.175V86.4H367.875V84.4ZM352.201 85.1739L349.276 97.7739L351.224 98.2261L354.149 85.6261L352.201 85.1739ZM350.25 97H342V99H350.25V97ZM342.964 98.2672L356.689 48.7672L354.761 48.2328L341.036 97.7328L342.964 98.2672ZM355.725 49.5H366.9V47.5H355.725V49.5ZM354.525 80.85H366.6V78.85H354.525V80.85ZM367.573 79.6202L361.498 53.8952L359.552 54.3548L365.627 80.0798L367.573 79.6202ZM359.551 53.8979L353.551 79.6229L355.499 80.0771L361.499 54.3521L359.551 53.8979Z" fill="white"/>
</g>
<g style="mix-blend-mode:multiply">
<path d="M178.5 45.5L177.975 51.05H166.425V95H157.65V51.05H145.875V45.5H178.5Z" fill="white"/>
<path d="M178.5 45.5L179.496 45.5942L179.599 44.5H178.5V45.5ZM177.975 51.05V52.05H178.885L178.971 51.1442L177.975 51.05ZM166.425 51.05V50.05H165.425V51.05H166.425ZM166.425 95V96H167.425V95H166.425ZM157.65 95H156.65V96H157.65V95ZM157.65 51.05H158.65V50.05H157.65V51.05ZM145.875 51.05H144.875V52.05H145.875V51.05ZM145.875 45.5V44.5H144.875V45.5H145.875ZM177.504 45.4058L176.979 50.9558L178.971 51.1442L179.496 45.5942L177.504 45.4058ZM177.975 50.05H166.425V52.05H177.975V50.05ZM165.425 51.05V95H167.425V51.05H165.425ZM166.425 94H157.65V96H166.425V94ZM158.65 95V51.05H156.65V95H158.65ZM157.65 50.05H145.875V52.05H157.65V50.05ZM146.875 51.05V45.5H144.875V51.05H146.875ZM145.875 46.5H178.5V44.5H145.875V46.5Z" fill="white"/>
</g>
<g style="mix-blend-mode:multiply">
<path d="M134.425 95L114.55 61.1V95H107.5V45.5H114.175L134.05 79.4V45.5H141.1V95H134.425Z" fill="white"/>
<path d="M134.425 95L133.562 95.5058L133.852 96H134.425V95ZM114.55 61.1L115.413 60.5942L113.55 57.4171V61.1H114.55ZM114.55 95V96H115.55V95H114.55ZM107.5 95H106.5V96H107.5V95ZM107.5 45.5V44.5H106.5V45.5H107.5ZM114.175 45.5L115.038 44.9942L114.748 44.5H114.175V45.5ZM134.05 79.4L133.187 79.9058L135.05 83.0828V79.4H134.05ZM134.05 45.5V44.5H133.05V45.5H134.05ZM141.1 45.5H142.1V44.5H141.1V45.5ZM141.1 95V96H142.1V95H141.1ZM135.288 94.4942L115.413 60.5942L113.687 61.6058L133.562 95.5058L135.288 94.4942ZM113.55 61.1V95H115.55V61.1H113.55ZM114.55 94H107.5V96H114.55V94ZM108.5 95V45.5H106.5V95H108.5ZM107.5 46.5H114.175V44.5H107.5V46.5ZM113.312 46.0058L133.187 79.9058L134.913 78.8942L115.038 44.9942L113.312 46.0058ZM135.05 79.4V45.5H133.05V79.4H135.05ZM134.05 46.5H141.1V44.5H134.05V46.5ZM140.1 45.5V95H142.1V45.5H140.1ZM141.1 94H134.425V96H141.1V94Z" fill="white"/>
</g>
<g style="mix-blend-mode:multiply">
<path d="M414.875 59.9C414.875 62 414.25 64 413 65.9C411.75 67.75 410.15 69.225 408.2 70.325C411.5 70.975 414.025 72.475 415.775 74.825C417.575 77.175 418.475 80.075 418.475 83.525C418.475 86.875 417.55 89.7 415.7 92C413.85 94.25 411.375 95.95 408.275 97.1C405.225 98.2 401.9 98.75 398.3 98.75C394.1 98.75 389.5 98.375 384.5 97.625V48.8C390.4 48.4 395.1 48.2 398.6 48.2C403.7 48.2 407.675 49.075 410.525 50.825C413.425 52.575 414.875 55.6 414.875 59.9ZM393.275 68.825C394.425 68.975 395.7 69.05 397.1 69.05C400.05 69.05 402.25 68.375 403.7 67.025C405.15 65.675 405.875 63.55 405.875 60.65C405.875 55.85 403.275 53.45 398.075 53.45C396.525 53.45 394.925 53.575 393.275 53.825V68.825ZM393.275 93.05C395.075 93.35 396.75 93.5 398.3 93.5C401.8 93.5 404.475 92.7 406.325 91.1C408.225 89.5 409.175 87.05 409.175 83.75C409.175 80 408.15 77.475 406.1 76.175C404.1 74.825 400.95 74.15 396.65 74.15C395.3 74.15 394.175 74.225 393.275 74.375V93.05Z" fill="white"/>
<path d="M413 65.9L413.829 66.4599L413.835 66.4496L413 65.9ZM408.2 70.325L407.709 69.454L405.352 70.7833L408.007 71.3061L408.2 70.325ZM415.775 74.825L414.973 75.4223L414.981 75.4331L415.775 74.825ZM415.7 92L416.472 92.6351L416.479 92.6268L415.7 92ZM408.275 97.1L408.614 98.0407L408.623 98.0376L408.275 97.1ZM384.5 97.625H383.5V98.4862L384.352 98.6139L384.5 97.625ZM384.5 48.8L384.432 47.8023L383.5 47.8655V48.8H384.5ZM410.525 50.825L410.002 51.6772L410.008 51.6812L410.525 50.825ZM393.275 68.825H392.275V69.703L393.146 69.8166L393.275 68.825ZM393.275 53.825L393.125 52.8363L392.275 52.9651V53.825H393.275ZM393.275 93.05H392.275V93.8971L393.111 94.0364L393.275 93.05ZM406.325 91.1L405.681 90.335L405.671 90.3436L406.325 91.1ZM406.1 76.175L405.541 77.0038L405.552 77.0118L405.564 77.0195L406.1 76.175ZM393.275 74.375L393.111 73.3886L392.275 73.5279V74.375H393.275ZM413.875 59.9C413.875 61.7884 413.317 63.5994 412.165 65.3504L413.835 66.4496C415.183 64.4006 415.875 62.2116 415.875 59.9H413.875ZM412.171 65.3401C411.008 67.0613 409.524 68.43 407.709 69.454L408.691 71.196C410.776 70.02 412.492 68.4387 413.829 66.4599L412.171 65.3401ZM408.007 71.3061C411.102 71.9158 413.393 73.3007 414.973 75.4223L416.577 74.2277C414.657 71.6493 411.898 70.0342 408.393 69.3439L408.007 71.3061ZM414.981 75.4331C416.626 77.5807 417.475 80.257 417.475 83.525H419.475C419.475 79.893 418.524 76.7693 416.569 74.2169L414.981 75.4331ZM417.475 83.525C417.475 86.6795 416.609 89.2746 414.921 91.3732L416.479 92.6268C418.491 90.1254 419.475 87.0705 419.475 83.525H417.475ZM414.928 91.3649C413.204 93.4607 410.884 95.0655 407.927 96.1624L408.623 98.0376C411.866 96.8345 414.496 95.0393 416.472 92.6351L414.928 91.3649ZM407.936 96.1593C405.006 97.216 401.797 97.75 398.3 97.75V99.75C402.003 99.75 405.444 99.184 408.614 98.0407L407.936 96.1593ZM398.3 97.75C394.158 97.75 389.609 97.3801 384.648 96.6361L384.352 98.6139C389.391 99.3699 394.042 99.75 398.3 99.75V97.75ZM385.5 97.625V48.8H383.5V97.625H385.5ZM384.568 49.7977C390.458 49.3984 395.133 49.2 398.6 49.2V47.2C395.067 47.2 390.342 47.4016 384.432 47.8023L384.568 49.7977ZM398.6 49.2C403.605 49.2 407.371 50.0619 410.002 51.6772L411.048 49.9728C407.979 48.0881 403.795 47.2 398.6 47.2V49.2ZM410.008 51.6812C412.526 53.2004 413.875 55.8419 413.875 59.9H415.875C415.875 55.3581 414.324 51.9496 411.042 49.9688L410.008 51.6812ZM393.146 69.8166C394.346 69.9732 395.665 70.05 397.1 70.05V68.05C395.735 68.05 394.504 67.9768 393.404 67.8334L393.146 69.8166ZM397.1 70.05C400.182 70.05 402.673 69.3471 404.381 67.7569L403.019 66.2931C401.827 67.4029 399.918 68.05 397.1 68.05V70.05ZM404.381 67.7569C406.113 66.1444 406.875 63.6977 406.875 60.65H404.875C404.875 63.4023 404.187 65.2056 403.019 66.2931L404.381 67.7569ZM406.875 60.65C406.875 58.0744 406.174 55.9648 404.603 54.5152C403.048 53.0795 400.81 52.45 398.075 52.45V54.45C400.54 54.45 402.202 55.0205 403.247 55.9848C404.276 56.9352 404.875 58.4256 404.875 60.65H406.875ZM398.075 52.45C396.471 52.45 394.821 52.5793 393.125 52.8363L393.425 54.8137C395.029 54.5707 396.579 54.45 398.075 54.45V52.45ZM392.275 53.825V68.825H394.275V53.825H392.275ZM393.111 94.0364C394.956 94.3439 396.686 94.5 398.3 94.5V92.5C396.814 92.5 395.194 92.3561 393.439 92.0636L393.111 94.0364ZM398.3 94.5C401.938 94.5 404.883 93.6694 406.979 91.8564L405.671 90.3436C404.067 91.7306 401.662 92.5 398.3 92.5V94.5ZM406.969 91.8649C409.163 90.0172 410.175 87.2419 410.175 83.75H408.175C408.175 86.8581 407.287 88.9828 405.681 90.3351L406.969 91.8649ZM410.175 83.75C410.175 79.8545 409.109 76.899 406.636 75.3305L405.564 77.0195C407.191 78.051 408.175 80.1455 408.175 83.75H410.175ZM406.659 75.3462C404.409 73.8271 401.013 73.15 396.65 73.15V75.15C400.887 75.15 403.791 75.8229 405.541 77.0038L406.659 75.3462ZM396.65 73.15C395.268 73.15 394.084 73.2264 393.111 73.3886L393.439 75.3614C394.266 75.2236 395.332 75.15 396.65 75.15V73.15ZM392.275 74.375V93.05H394.275V74.375H392.275Z" fill="white"/>
</g>
<g style="mix-blend-mode:multiply">
<path d="M82.28 44.6C95.9333 44.6 102.76 53.6933 102.76 71.88C102.76 91.1333 95.9333 100.76 82.28 100.76C74.8133 100.76 69.5067 98.28 66.36 93.32C63.2667 88.36 61.72 81.5333 61.72 72.84C61.72 64.3067 63.32 57.48 66.52 52.36C69.7733 47.1867 75.0267 44.6 82.28 44.6ZM82.28 95.16C86.5467 95.16 89.3467 93.0533 90.68 88.84C92.0133 84.5733 92.68 79.1067 92.68 72.44C92.68 66.0933 91.9867 60.8133 90.6 56.6C89.2133 52.3333 86.44 50.2 82.28 50.2C78.0667 50.2 75.2667 52.3333 73.88 56.6C72.4933 60.8133 71.8 66.0933 71.8 72.44C71.8 79.1067 72.4667 84.5733 73.8 88.84C75.1333 93.0533 77.96 95.16 82.28 95.16Z" fill="white"/>
<path d="M66.36 93.32L65.5115 93.8492L65.5156 93.8557L66.36 93.32ZM66.52 52.36L65.6735 51.8276L65.672 51.83L66.52 52.36ZM90.68 88.84L91.6334 89.1417L91.6345 89.1383L90.68 88.84ZM90.6 56.6L89.649 56.9091L89.6501 56.9126L90.6 56.6ZM73.88 56.6L74.8299 56.9126L74.831 56.9091L73.88 56.6ZM73.8 88.84L72.8455 89.1383L72.8466 89.1417L73.8 88.84ZM82.28 45.6C88.863 45.6 93.6547 47.7771 96.8403 52.0204C100.066 56.3176 101.76 62.883 101.76 71.88H103.76C103.76 62.6904 102.04 55.6157 98.4397 50.8196C94.7986 45.9696 89.3503 43.6 82.28 43.6V45.6ZM101.76 71.88C101.76 81.4189 100.063 88.3939 96.8243 92.9615C93.6299 97.4661 88.8409 99.76 82.28 99.76V101.76C89.3724 101.76 94.8234 99.2405 98.4557 94.1185C102.043 89.0595 103.76 81.5945 103.76 71.88H101.76ZM82.28 99.76C75.0501 99.76 70.1174 97.376 67.2044 92.7843L65.5156 93.8557C68.8959 99.184 74.5766 101.76 82.28 101.76V99.76ZM67.2085 92.7908C64.2512 88.049 62.72 81.4315 62.72 72.84H60.72C60.72 81.6352 62.2821 88.671 65.5115 93.8492L67.2085 92.7908ZM62.72 72.84C62.72 64.4202 64.3003 57.7983 67.368 52.89L65.672 51.83C62.3397 57.1617 60.72 64.1931 60.72 72.84H62.72ZM67.3665 52.8923C70.4002 48.0683 75.2956 45.6 82.28 45.6V43.6C74.7578 43.6 69.1464 46.3051 65.6735 51.8276L67.3665 52.8923ZM82.28 96.16C84.5819 96.16 86.5729 95.5892 88.1812 94.3791C89.7864 93.1714 90.9205 91.3946 91.6334 89.1417L89.7266 88.5383C89.1062 90.4987 88.1736 91.882 86.9788 92.7809C85.7871 93.6775 84.2448 94.16 82.28 94.16V96.16ZM91.6345 89.1383C93.0089 84.7401 93.68 79.1632 93.68 72.44H91.68C91.68 79.0501 91.0178 84.4065 89.7255 88.5417L91.6345 89.1383ZM93.68 72.44C93.68 66.0289 92.9807 60.6348 91.5499 56.2874L89.6501 56.9126C90.9927 60.9919 91.68 66.1578 91.68 72.44H93.68ZM91.551 56.2909C90.8129 54.0196 89.6761 52.2277 88.0897 51.0074C86.4969 49.7821 84.5374 49.2 82.28 49.2V51.2C84.1826 51.2 85.6898 51.6845 86.8703 52.5926C88.0573 53.5057 89.0005 54.9137 89.649 56.9091L91.551 56.2909ZM82.28 49.2C79.9988 49.2 78.0205 49.7806 76.414 51.0046C74.8129 52.2245 73.6679 54.0172 72.929 56.2909L74.831 56.9091C75.4787 54.9161 76.4272 53.5089 77.626 52.5954C78.8195 51.6861 80.3478 51.2 82.28 51.2V49.2ZM72.9301 56.2874C71.4993 60.6348 70.8 66.0289 70.8 72.44H72.8C72.8 66.1578 73.4873 60.9919 74.8299 56.9126L72.9301 56.2874ZM70.8 72.44C70.8 79.1632 71.4711 84.7401 72.8455 89.1383L74.7545 88.5417C73.4622 84.4065 72.8 79.0501 72.8 72.44H70.8ZM72.8466 89.1417C73.5603 91.3971 74.7026 93.1746 76.3224 94.3818C77.9443 95.5906 79.9542 96.16 82.28 96.16V94.16C80.2858 94.16 78.7224 93.6761 77.5176 92.7782C76.3108 91.8788 75.373 90.4962 74.7534 88.5383L72.8466 89.1417Z" fill="white"/>
</g>
<g style="mix-blend-mode:multiply">
<path d="M452.6 48.2V54.12H435.16V70.92H450.2V76.84H435.16V95.08H453.72L453.16 101H425.8V48.2H452.6Z" fill="white"/>
<path d="M452.6 48.2H453.6V47.2H452.6V48.2ZM452.6 54.12V55.12H453.6V54.12H452.6ZM435.16 54.12V53.12H434.16V54.12H435.16ZM435.16 70.92H434.16V71.92H435.16V70.92ZM450.2 70.92H451.2V69.92H450.2V70.92ZM450.2 76.84V77.84H451.2V76.84H450.2ZM435.16 76.84V75.84H434.16V76.84H435.16ZM435.16 95.08H434.16V96.08H435.16V95.08ZM453.72 95.08L454.716 95.1742L454.819 94.08H453.72V95.08ZM453.16 101V102H454.07L454.156 101.094L453.16 101ZM425.8 101H424.8V102H425.8V101ZM425.8 48.2V47.2H424.8V48.2H425.8ZM451.6 48.2V54.12H453.6V48.2H451.6ZM452.6 53.12H435.16V55.12H452.6V53.12ZM434.16 54.12V70.92H436.16V54.12H434.16ZM435.16 71.92H450.2V69.92H435.16V71.92ZM449.2 70.92V76.84H451.2V70.92H449.2ZM450.2 75.84H435.16V77.84H450.2V75.84ZM434.16 76.84V95.08H436.16V76.84H434.16ZM435.16 96.08H453.72V94.08H435.16V96.08ZM452.724 94.9858L452.164 100.906L454.156 101.094L454.716 95.1742L452.724 94.9858ZM453.16 100H425.8V102H453.16V100ZM426.8 101V48.2H424.8V101H426.8ZM425.8 49.2H452.6V47.2H425.8V49.2Z" fill="white"/>
</g>
<path d="M514.993 175.962C514.509 156.337 487.59 137.56 440.083 123.711C392.576 109.862 328.321 102.06 261.276 102C194.232 101.94 129.815 109.627 82.0204 123.391C34.226 137.155 6.91563 155.883 6.02258 175.508L25.1011 175.582C25.9272 157.429 51.1902 140.105 95.4013 127.373C139.612 114.641 199.2 107.53 261.218 107.586C323.236 107.641 382.675 114.858 426.619 127.669C470.564 140.479 495.466 157.848 495.914 176.002L514.993 175.962Z" fill="white"/>
<rect x="6.2" y="103" width="16.1" height="72" fill="white"/>
<rect x="498.7" y="104" width="16.1" height="72" fill="white"/>
</g>
</svg>
